<svg xmlns="http://www.w3.org/2000/svg" width="256" height="256" viewBox="0 0 100 100"><rect width="100" height="100" rx="50" fill="#ff4501"></rect><path fill="#fff" d="M44.27 27.95L44.27 68.13Q44.27 69.61 43.64 70.42Q43.01 71.24 41.68 72.05L41.68 72.05Q40.20 73.01 37.46 73.87Q34.72 74.72 31.17 74.72L31.17 74.72Q27.17 74.72 23.84 73.68Q20.51 72.64 18.11 70.46Q15.70 68.28 14.41 64.91Q13.11 61.54 13.11 56.81L13.11 56.81Q13.11 52.00 14.44 48.56Q15.78 45.12 18.03 42.90Q20.29 40.68 23.36 39.64Q26.43 38.60 29.91 38.60L29.91 38.60Q32.28 38.60 34.50 39.20Q36.72 39.79 38.35 40.68L38.35 40.68L38.35 25.80Q38.72 25.65 39.49 25.47Q40.27 25.28 41.08 25.28L41.08 25.28Q44.27 25.28 44.27 27.95L44.27 27.95ZM38.35 67.91L38.35 46.00Q36.87 44.97 34.94 44.23Q33.02 43.49 30.50 43.49L30.50 43.49Q28.21 43.49 26.17 44.19Q24.14 44.89 22.58 46.49Q21.03 48.08 20.10 50.67Q19.18 53.26 19.18 56.96L19.18 56.96Q19.18 63.76 22.44 66.80Q25.69 69.83 31.09 69.83L31.09 69.83Q33.68 69.83 35.35 69.28Q37.01 68.72 38.35 67.91L38.35 67.91ZM70.76 38.60L70.76 38.60Q74.16 38.60 77.12 39.71Q80.08 40.82 82.26 43.04Q84.45 45.26 85.67 48.67Q86.89 52.07 86.89 56.66L86.89 56.66Q86.89 61.32 85.63 64.73Q84.37 68.13 82.12 70.35Q79.86 72.57 76.68 73.64Q73.50 74.72 69.72 74.72L69.72 74.72Q66.09 74.72 63.17 73.87Q60.25 73.01 58.40 71.90L58.40 71.90Q56.85 70.94 56.25 70.02Q55.66 69.09 55.66 67.54L55.66 67.54L55.66 25.80Q56.03 25.65 56.81 25.47Q57.59 25.28 58.47 25.28L58.47 25.28Q61.58 25.28 61.58 27.95L61.58 27.95L61.58 41.19Q63.21 40.16 65.47 39.38Q67.72 38.60 70.76 38.60ZM69.87 43.49L69.87 43.49Q67.28 43.49 65.17 44.41Q63.06 45.34 61.58 46.60L61.58 46.60L61.58 67.54Q62.69 68.35 64.80 69.09Q66.91 69.83 69.72 69.83L69.72 69.83Q72.24 69.83 74.27 69.06Q76.31 68.28 77.79 66.65Q79.27 65.02 80.08 62.54Q80.90 60.06 80.90 56.66L80.90 56.66Q80.90 53.26 80.08 50.74Q79.27 48.22 77.79 46.63Q76.31 45.04 74.27 44.27Q72.24 43.49 69.87 43.49Z"></path></svg>